HIERARCHY
ROOT joint_Root
{
	OFFSET 0.0 0.0 0.0
	CHANNELS 6 Xposition Yposition Zposition Zrotation Xrotation Yrotation 
	JOINT Hips
	{
		OFFSET -17.1583 93.1646 452.98
		CHANNELS 6 Xposition Yposition Zposition Zrotation Xrotation Yrotation 
		JOINT Spine
		{
			OFFSET 15.7357 0.0 0.0
			CHANNELS 6 Xposition Yposition Zposition Zrotation Xrotation Yrotation 
			JOINT Chest
			{
				OFFSET 8.98455 -0.406207 0.0
				CHANNELS 6 Xposition Yposition Zposition Zrotation Xrotation Yrotation 
				JOINT Neck
				{
					OFFSET 16.3773 0.0 0.0
					CHANNELS 6 Xposition Yposition Zposition Zrotation Xrotation Yrotation 
					JOINT Head
					{
						OFFSET 6.45672 0.0 0.0
						CHANNELS 6 Xposition Yposition Zposition Zrotation Xrotation Yrotation 
						End Site
						{
							OFFSET 0.0 0.0 0.0
						}
					}
				}
				JOINT Shoulder_L
				{
					OFFSET 12.9942 -0.242716 4.98039
					CHANNELS 6 Xposition Yposition Zposition Zrotation Xrotation Yrotation 
					JOINT UpperArm_L
					{
						OFFSET 5.34809 0.0 0.0
						CHANNELS 6 Xposition Yposition Zposition Zrotation Xrotation Yrotation 
						JOINT LowerArm_L
						{
							OFFSET 24.3286 1.87007e-05 0.0
							CHANNELS 6 Xposition Yposition Zposition Zrotation Xrotation Yrotation 
							JOINT Hand_L
							{
								OFFSET 22.2916 0.0 0.0
								CHANNELS 6 Xposition Yposition Zposition Zrotation Xrotation Yrotation 
								End Site
								{
									OFFSET 0.0 0.0 0.0
								}
							}
						}
					}
				}
				JOINT Shoulder_R
				{
					OFFSET 12.9945 -0.242716 -4.98039
					CHANNELS 6 Xposition Yposition Zposition Zrotation Xrotation Yrotation 
					JOINT UpperArm_R
					{
						OFFSET -5.34813 0.0 0.0
						CHANNELS 6 Xposition Yposition Zposition Zrotation Xrotation Yrotation 
						JOINT LowerArm_R
						{
							OFFSET -24.3289 0.000322201 0.0
							CHANNELS 6 Xposition Yposition Zposition Zrotation Xrotation Yrotation 
							JOINT Hand_R
							{
								OFFSET -22.2915 -0.000108084 0.0
								CHANNELS 6 Xposition Yposition Zposition Zrotation Xrotation Yrotation 
								End Site
								{
									OFFSET 0.0 0.0 0.0
								}
							}
						}
					}
				}
			}
		}
		JOINT UpperLeg_L
		{
			OFFSET -2.19248 -6.46944 0.0
			CHANNELS 6 Xposition Yposition Zposition Zrotation Xrotation Yrotation 
			JOINT LowerLeg_L
			{
				OFFSET 39.0811 0.0 -1.23785e-05
				CHANNELS 6 Xposition Yposition Zposition Zrotation Xrotation Yrotation 
				JOINT Foot_L
				{
					OFFSET 40.9854 0.0 -1.26872e-05
					CHANNELS 6 Xposition Yposition Zposition Zrotation Xrotation Yrotation 
					JOINT Toes_L
					{
						OFFSET 11.7543 0.0 0.0
						CHANNELS 6 Xposition Yposition Zposition Zrotation Xrotation Yrotation 
						End Site
						{
							OFFSET 0.0 0.0 0.0
						}
					}
				}
			}
		}
		JOINT UpperLeg_R
		{
			OFFSET -2.19251 6.46944 0.0
			CHANNELS 6 Xposition Yposition Zposition Zrotation Xrotation Yrotation 
			JOINT LowerLeg_R
			{
				OFFSET -39.0811 -0.00228153 -0.0401928
				CHANNELS 6 Xposition Yposition Zposition Zrotation Xrotation Yrotation 
				JOINT Foot_R
				{
					OFFSET -40.9854 0.0 0.0
					CHANNELS 6 Xposition Yposition Zposition Zrotation Xrotation Yrotation 
					JOINT Toes_R
					{
						OFFSET -11.7543 0.0 0.0
						CHANNELS 6 Xposition Yposition Zposition Zrotation Xrotation Yrotation 
						End Site
						{
							OFFSET 0.0 0.0 0.0
						}
					}
				}
			}
		}
	}
}
MOTION
Frames:	5
Frame Time:	0.0333333
0.000000 0.000000 0.000000 0.000000 0.000000 -0.000000 114.730000 86.951000 176.290000 -90.284200 51.456800 -177.018000 15.735700 0.000005 -0.000001 90.042700 85.859900 -89.487700 8.984550 -0.406207 -0.000000 0.514606 -0.028942 1.109220 16.377300 -0.000001 -0.000001 14.420700 13.252800 -2.943990 6.456720 -0.000001 -0.000000 2.600370 20.198600 2.715020 12.994200 -0.242716 4.980390 -93.199400 7.374750 -66.467500 5.348090 -0.000007 -0.000001 -72.080100 -8.769280 4.697280 24.328600 0.000019 0.000005 1.486850 4.004820 -20.385100 22.291600 -0.000001 0.000005 53.598400 4.245930 20.619200 12.994500 -0.242716 -4.980390 89.066300 2.716510 -71.024200 -5.348130 -0.000001 -0.000004 -71.492500 8.135790 -3.158300 -24.328900 0.000322 -0.000009 4.534070 7.687350 -30.667300 -22.291500 -0.000108 -0.000004 31.637500 5.480640 -5.772950 -2.192480 -6.469440 -0.000000 164.633000 -3.087180 -21.364800 39.081100 -0.000007 -0.000012 0.695772 -0.886707 38.122600 40.985400 -0.000006 -0.000013 16.196200 -0.221735 -68.690800 11.754300 -0.000000 0.000003 0.000617 0.156491 -10.230100 -2.192510 6.469440 -0.000001 168.662000 9.326820 170.507000 -39.081100 -0.002282 -0.040193 0.470912 -0.184411 68.484800 -40.985400 0.000008 0.000006 -12.081700 2.485650 -29.724700 -11.754300 -0.000006 -0.000006 -0.000900 0.181650 -9.204820
0.000000 0.000000 0.000000 0.000000 0.000000 -0.000000 117.912000 87.332900 173.798000 -89.975400 48.241700 -176.220000 15.735700 0.000005 -0.000001 82.805800 85.569900 -82.022300 8.984550 -0.406207 -0.000000 1.033010 -1.155150 1.576200 16.377300 -0.000001 -0.000001 14.818100 12.955900 -3.476400 6.456720 -0.000001 -0.000000 2.874960 20.246400 2.387050 12.994200 -0.242716 4.980390 -93.225800 7.548150 -66.778300 5.348090 -0.000007 -0.000001 -74.313300 -3.170000 3.424670 24.328600 0.000019 0.000005 4.170530 8.773360 -25.549500 22.291600 -0.000001 0.000005 52.936900 4.320940 19.467500 12.994500 -0.242716 -4.980390 89.127900 2.480290 -70.619900 -5.348130 -0.000001 -0.000004 -71.211200 6.902660 -1.984290 -24.328900 0.000322 -0.000009 3.963770 9.832670 -22.090100 -22.291500 -0.000108 -0.000004 29.710100 5.475940 -5.593560 -2.192480 -6.469440 -0.000000 165.085000 -2.916700 -16.423400 39.081100 -0.000007 -0.000012 0.693492 -0.902842 37.531000 40.985400 -0.000006 -0.000013 16.816400 1.857880 -71.677600 11.754300 -0.000000 0.000003 0.000317 0.162101 -10.002300 -2.192510 6.469440 -0.000001 169.337000 7.551570 166.308000 -39.081100 -0.002282 -0.040193 0.319883 -0.103527 71.903200 -40.985400 0.000008 0.000006 -7.974560 0.105515 -38.795100 -11.754300 -0.000006 -0.000006 -0.000859 0.181059 -9.228830
0.000000 0.000000 0.000000 0.000000 0.000000 -0.000000 121.061000 88.089200 171.517000 -89.112700 44.628100 -176.134000 15.735700 0.000005 -0.000001 75.923700 85.297100 -74.839800 8.984550 -0.406207 -0.000000 1.381720 -2.346870 2.194490 16.377300 -0.000001 -0.000001 14.953700 12.512400 -3.717090 6.456720 -0.000001 -0.000000 2.681440 19.968200 2.210310 12.994200 -0.242716 4.980390 -93.210500 7.657290 -67.170900 5.348090 -0.000007 -0.000001 -74.781500 1.561130 2.245920 24.328600 0.000019 0.000005 10.151700 16.392700 -32.393000 22.291600 -0.000001 0.000005 53.311800 4.374470 18.628500 12.994500 -0.242716 -4.980390 89.162000 2.323450 -70.160700 -5.348130 -0.000001 -0.000004 -70.639300 4.348740 0.100077 -24.328900 0.000322 -0.000009 2.145740 8.070720 -14.949100 -22.291500 -0.000108 -0.000004 27.942200 5.450030 -4.640610 -2.192480 -6.469440 -0.000000 166.338000 -2.024080 -10.848500 39.081100 -0.000007 -0.000012 0.614540 -0.881863 34.873300 40.985400 -0.000006 -0.000013 17.126400 4.040670 -73.611000 11.754300 -0.000000 0.000003 0.000244 0.163408 -9.949270 -2.192510 6.469440 -0.000001 170.739000 4.926080 162.920000 -39.081100 -0.002282 -0.040193 0.171403 -0.056182 71.541200 -40.985400 0.000008 0.000006 -5.420760 -6.504130 -48.489700 -11.754300 -0.000006 -0.000006 -0.001508 0.190040 -8.863790
0.000000 0.000000 0.000000 0.000000 0.000000 -0.000000 124.085000 89.048800 169.467000 -87.492900 40.959500 -177.297000 15.735700 0.000005 -0.000001 68.959600 85.176500 -67.378600 8.984550 -0.406207 -0.000000 1.291580 -3.551210 3.200170 16.377300 -0.000001 -0.000001 14.521000 12.007700 -3.718380 6.456720 -0.000001 -0.000000 2.483360 19.649500 1.936210 12.994200 -0.242716 4.980390 -93.228900 7.848890 -67.554200 5.348090 -0.000007 -0.000001 -73.916200 3.900480 1.543890 24.328600 0.000019 0.000005 20.347900 24.367700 -41.951000 22.291600 -0.000001 0.000005 53.476500 4.430160 17.739700 12.994500 -0.242716 -4.980390 89.210500 2.123820 -69.601800 -5.348130 -0.000001 -0.000004 -69.603700 1.444010 2.633490 -24.328900 0.000322 -0.000009 1.128460 6.735670 -9.542040 -22.291500 -0.000108 -0.000004 28.076500 5.415310 -3.441990 -2.192480 -6.469440 -0.000000 168.483000 -0.500794 -5.658890 39.081100 -0.000007 -0.000012 0.481387 -0.807916 30.789500 40.985400 -0.000006 -0.000013 17.140400 6.355100 -74.651900 11.754300 -0.000000 0.000003 0.000658 0.155688 -10.262700 -2.192510 6.469440 -0.000001 172.789000 1.619270 160.085000 -39.081100 -0.002282 -0.040193 0.029421 -0.011055 67.182500 -40.985400 0.000008 0.000006 -2.923010 -14.515600 -56.794300 -11.754300 -0.000006 -0.000006 -0.001724 0.192872 -8.748640
0.000000 0.000000 0.000000 0.000000 0.000000 -0.000000 127.034000 90.034100 167.654000 -85.816300 37.000300 -179.161000 15.735700 0.000005 -0.000001 61.350400 85.170600 -59.210500 8.984550 -0.406207 -0.000000 0.806698 -4.759150 4.311930 16.377300 -0.000001 -0.000001 13.638900 11.304200 -3.566000 6.456720 -0.000001 -0.000000 2.172670 19.149200 1.620550 12.994200 -0.242716 4.980390 -93.185900 7.919700 -68.002500 5.348090 -0.000007 -0.000001 -72.946400 3.889570 0.672338 24.328600 0.000019 0.000005 30.889200 27.807500 -52.052700 22.291600 -0.000001 0.000005 53.826200 4.457340 17.299600 12.994500 -0.242716 -4.980390 89.263900 1.911180 -68.930000 -5.348130 -0.000001 -0.000004 -67.998200 -1.786930 5.621260 -24.328900 0.000322 -0.000009 0.711827 6.565940 -6.210110 -22.291500 -0.000108 -0.000004 27.737900 5.386290 -2.497240 -2.192480 -6.469440 -0.000000 170.925000 2.339200 -1.081590 39.081100 -0.000007 -0.000012 0.322375 -0.671611 25.641800 40.985400 -0.000006 -0.000013 16.625800 8.143130 -74.638600 11.754300 -0.000000 0.000003 0.001107 0.146267 -10.645100 -2.192510 6.469440 -0.000001 174.292000 -1.655130 157.921000 -39.081100 -0.002282 -0.040193 -0.022413 0.015441 58.922700 -40.985400 0.000008 0.000006 -2.422040 -21.180400 -62.123300 -11.754300 -0.000006 -0.000006 -0.002923 0.207395 -8.157880
